<svg width="12" height="12" viewBox="0 0 12 12" fill="none" xmlns="http://www.w3.org/2000/svg">
<path d="M6.05996 11.9999C5.21996 11.9999 4.43247 11.8399 3.69747 11.5199C2.96248 11.1999 2.32248 10.7674 1.77749 10.2224C1.23249 9.67743 0.799994 9.03744 0.479997 8.30244C0.159999 7.56745 0 6.77995 0 5.93996C0 4.47997 0.464997 3.19248 1.39499 2.07749C2.32498 0.962493 3.50998 0.269998 4.94997 0C4.76997 0.989993 4.82497 1.95749 5.11496 2.90248C5.40496 3.84747 5.90496 4.67497 6.61495 5.38496C7.32495 6.09496 8.15244 6.59495 9.09744 6.88495C10.0424 7.17495 11.0099 7.22995 11.9999 7.04995C11.7399 8.48994 11.0499 9.67493 9.92993 10.6049C8.80994 11.5349 7.51995 11.9999 6.05996 11.9999ZM6.05996 10.7999C6.93995 10.7999 7.75495 10.5799 8.50494 10.1399C9.25494 9.69993 9.84493 9.09494 10.2749 8.32494C9.41493 8.24494 8.59994 8.02744 7.82995 7.67245C7.05995 7.31745 6.36996 6.83495 5.75996 6.22496C5.14996 5.61496 4.66497 4.92497 4.30497 4.15497C3.94497 3.38498 3.72997 2.56998 3.65997 1.70999C2.88998 2.13999 2.28748 2.73248 1.85249 3.48748C1.41749 4.24247 1.19999 5.05996 1.19999 5.93996C1.19999 7.28995 1.67249 8.43744 2.61748 9.38243C3.56248 10.3274 4.70997 10.7999 6.05996 10.7999Z" fill="#4F378A"/>
</svg>
