<svg width="14" height="14" viewBox="0 0 14 14" fill="none" xmlns="http://www.w3.org/2000/svg">
<path d="M3.11111 10.8889H4.66667V7H3.11111V10.8889ZM9.33333 10.8889H10.8889V3.11111H9.33333V10.8889ZM6.22222 10.8889H7.77778V8.55556H6.22222V10.8889ZM6.22222 7H7.77778V5.44444H6.22222V7ZM1.55556 14C1.12778 14 0.761574 13.8477 0.456944 13.5431C0.152315 13.2384 0 12.8722 0 12.4444V1.55556C0 1.12778 0.152315 0.761574 0.456944 0.456944C0.761574 0.152315 1.12778 0 1.55556 0H12.4444C12.8722 0 13.2384 0.152315 13.5431 0.456944C13.8477 0.761574 14 1.12778 14 1.55556V12.4444C14 12.8722 13.8477 13.2384 13.5431 13.5431C13.2384 13.8477 12.8722 14 12.4444 14H1.55556ZM1.55556 12.4444H12.4444V1.55556H1.55556V12.4444ZM1.55556 1.55556V12.4444V1.55556Z" fill="#7A7087"/>
</svg>
